<svg xmlns="http://www.w3.org/2000/svg" xmlns:xlink="http://www.w3.org/1999/xlink" width="227.052" height="36.63" viewBox="0 0 227.052 36.63"><defs><style>.a{fill:url(#a);}</style><linearGradient id="a" x1="0.5" x2="0.389" y2="1.053" gradientUnits="objectBoundingBox"><stop offset="0" stop-color="#fe781e"/><stop offset="1" stop-color="#f34242"/></linearGradient></defs><g transform="translate(-101 -34)"><path d="M-84.1-13.86a2.175,2.175,0,0,0-.864.18c-.828.324-2.2,1.152-2.2,2.016,0,.432,1.98.648,2.34.648a33.609,33.609,0,0,0-.756,6.768c0,1.8.108,4.716,2.268,4.716,1.692,0,3.924-1.692,4.968-2.664.288-.288,1.044-.936,1.044-1.368,0-.288-.252-.324-.468-.324-1.116.072-2.16,1.116-2.952,1.8-1.4,0-1.44-3.384-1.44-4.176a30.3,30.3,0,0,1,.36-4.788c1.188-.18,5.292-1.188,5.292-2.736,0-.252-.216-.324-.4-.324a8.4,8.4,0,0,0-1.692.4,10.638,10.638,0,0,1-2.736.252c.252-1.008.5-1.98.828-2.952.108-.432.576-1.512.612-1.872,0-.216-.18-.288-.36-.288C-82.7-18.144-83.524-15.876-84.1-13.86ZM-64.768-2.592a4.874,4.874,0,0,1-1.4-3.672c0-2.7,1.4-5.8,2.052-8.28-.036-.252-.36-.252-.54-.252-2.772,0-5.724,3.132-7.812,6.048a87.5,87.5,0,0,1,3.6-14.148,1.294,1.294,0,0,0,.072-.4c0-1.188-1.98-2.448-2.988-2.448-.576,0-.936,1.26-1.08,1.764C-74.884-16.848-76.54-8.712-76.54-2.3a2.438,2.438,0,0,0,.144.936A4.63,4.63,0,0,0-73.732.36c.18,0,.324-.072.324-.252a34.315,34.315,0,0,1,.324-4.5c1.26-2.628,3.456-6.408,5.544-7.992A24.826,24.826,0,0,0-69.592-3.6c0,1.62.432,3.6,2.268,3.6,1.584,0,3.42-1.368,4.572-2.376.252-.252.792-.828.792-1.152,0-.252-.324-.288-.468-.288A5.219,5.219,0,0,0-64.768-2.592ZM-54.9-3.42A2.563,2.563,0,0,1-55.732-2.2,4.153,4.153,0,0,1-59.368-5c2.376-1.26,6.516-4.176,6.516-7.308,0-1.116-.576-2.34-1.908-2.34-4.32,0-8.316,5.58-8.316,9.9,0,2.448,1.728,5.112,4.5,5.112,2.448,0,4.824-1.98,6.3-4a3.623,3.623,0,0,0,.72-1.44.356.356,0,0,0-.36-.324A3.945,3.945,0,0,0-54.9-3.42ZM-59.62-6.48A9.014,9.014,0,0,1-57.64-12.1a.457.457,0,0,1,.216-.036c.864,0,1.224.972,1.224,1.8C-56.2-8.5-58-7.2-59.62-6.48Zm8.09,10.946h10.318c.418,0,1.584-.7,1.584-1.166,0-.154-.132-.176-.242-.176H-50.188c-.484,0-1.584.748-1.584,1.166C-51.772,4.444-51.64,4.466-51.53,4.466ZM-29.088-6.408c0-1.188.5-2.16.5-2.844,0-.252-.288-.324-.468-.324a5.337,5.337,0,0,0-3.024,2.052,26.508,26.508,0,0,1-3.24,4.932A4.619,4.619,0,0,1-36.5-6.084a7.7,7.7,0,0,1,2.232-5.508c.5.216,1.3.972,1.3,1.548a1.068,1.068,0,0,0-.144.4c0,.144.072.252.324.288,1.26-.072,3.276-1.368,3.276-2.736a2.536,2.536,0,0,0-2.376-2.16c-4.248,0-8.172,6.588-8.172,10.26,0,1.548.5,4.212,2.376,4.212,2.052,0,3.96-2.016,5.148-3.312.252,1.62,1.08,3.132,2.808,3.132,1.26,0,4.392-1.116,4.392-2.448,0-.18-.144-.288-.432-.288-.5.036-.864.252-1.3.252C-28.836-2.448-29.088-5.256-29.088-6.408Zm7.74-1.872a18.728,18.728,0,0,1,3.528-3.636,18.873,18.873,0,0,1-.936,2.736.512.512,0,0,0-.072.216.274.274,0,0,0,.288.252,3.211,3.211,0,0,0,2.232-1.476,15.558,15.558,0,0,0,1.26-3.852c0-.216-.144-.252-.324-.252-1.476,0-4.284,2.268-5.292,3.168A10.3,10.3,0,0,1-19.44-13.86a.132.132,0,0,0,.036-.108c0-.4-.72-.576-1.476-.576a3.707,3.707,0,0,0-1.872.4c-1.656,1.4-3.348,8.82-3.348,12.024,0,1.692,1.8,2.448,3.2,2.448.4-.036.792-.144.792-.36A35.345,35.345,0,0,1-21.348-8.28Zm8.676-5.58a2.175,2.175,0,0,0-.864.18c-.828.324-2.2,1.152-2.2,2.016,0,.432,1.98.648,2.34.648a33.609,33.609,0,0,0-.756,6.768c0,1.8.108,4.716,2.268,4.716,1.692,0,3.924-1.692,4.968-2.664.288-.288,1.044-.936,1.044-1.368,0-.288-.252-.324-.468-.324-1.116.072-2.16,1.116-2.952,1.8-1.4,0-1.44-3.384-1.44-4.176a30.3,30.3,0,0,1,.36-4.788c1.188-.18,5.292-1.188,5.292-2.736,0-.252-.216-.324-.4-.324a8.4,8.4,0,0,0-1.692.4,10.638,10.638,0,0,1-2.736.252c.252-1.008.5-1.98.828-2.952.108-.432.576-1.512.612-1.872,0-.216-.18-.288-.36-.288C-11.268-18.144-12.1-15.876-12.672-13.86ZM-4.654,4.466H5.664c.418,0,1.584-.7,1.584-1.166,0-.154-.132-.176-.242-.176H-3.312C-3.8,3.124-4.9,3.872-4.9,4.29-4.9,4.444-4.764,4.466-4.654,4.466ZM9.976-13.86C8.284-12.42,6.988-5.184,6.988-2.34c0,1.8,1.944,2.52,3.24,2.52.468,0,.792-.144.792-.432a24.852,24.852,0,0,1-.108-2.772c.828-3.528,2.016-7.092,4.788-9.36a35.288,35.288,0,0,0-1.764,9.9c0,1.908,1.836,2.664,3.24,2.664.576,0,.756-.252.756-.5,0-1.044-.108-1.584-.108-2.556A11.722,11.722,0,0,1,17.9-4.356a17.673,17.673,0,0,1,4.14-6.372,23.568,23.568,0,0,0-1.224,6.8C20.812-2.376,21.1,0,22.936,0c2.2,0,5.436-3.06,5.436-3.708,0-.252-.18-.324-.36-.324a4.668,4.668,0,0,0-2.7,1.476c-.792-.288-1.044-1.62-1.044-3.132,0-2.952.828-5.4,1.512-8.064,0-.288-.144-.324-.324-.324-2.052,0-6.192,4.14-7.2,5.436a12.95,12.95,0,0,1,1.872-5.4.132.132,0,0,0,.036-.108c0-.54-1.476-.576-1.764-.576-2.736,0-5,2.556-6.48,4.428a9.866,9.866,0,0,1,1.368-3.276.132.132,0,0,0,.036-.108c0-.54-1.44-.576-1.728-.576A2.636,2.636,0,0,0,9.976-13.86Zm23,11.448c-1.332-.216-1.368-2.016-1.368-3.06a22.911,22.911,0,0,1,1.836-8.748.26.26,0,0,0-.288-.288A4.106,4.106,0,0,0,30.5-13,23.143,23.143,0,0,0,28.12-3.528c0,1.62.4,3.708,2.268,3.708,1.584,0,3.456-1.368,4.464-2.268.18-.18.936-.864.936-1.26,0-.252-.36-.288-.5-.288A4.466,4.466,0,0,0,32.98-2.412Zm.936-14a9.87,9.87,0,0,0,.828-3.24c0-.648-.828-.9-1.656-.9a1.946,1.946,0,0,0-1.476.468,9.672,9.672,0,0,0-.828,3.348c0,.792.612,1.08,1.3,1.08A2.429,2.429,0,0,0,33.916-16.416ZM39.748-8.28a18.728,18.728,0,0,1,3.528-3.636A18.873,18.873,0,0,1,42.34-9.18a.512.512,0,0,0-.072.216.274.274,0,0,0,.288.252,3.211,3.211,0,0,0,2.232-1.476,15.558,15.558,0,0,0,1.26-3.852c0-.216-.144-.252-.324-.252-1.476,0-4.284,2.268-5.292,3.168a10.3,10.3,0,0,1,1.224-2.736.132.132,0,0,0,.036-.108c0-.4-.72-.576-1.476-.576a3.707,3.707,0,0,0-1.872.4C36.688-12.744,35-5.328,35-2.124,35-.432,36.8.324,38.2.324c.4-.036.792-.144.792-.36A35.345,35.345,0,0,1,39.748-8.28ZM55.012-6.408c0-1.188.5-2.16.5-2.844,0-.252-.288-.324-.468-.324a5.337,5.337,0,0,0-3.024,2.052,26.508,26.508,0,0,1-3.24,4.932A4.619,4.619,0,0,1,47.6-6.084a7.7,7.7,0,0,1,2.232-5.508c.5.216,1.3.972,1.3,1.548a1.068,1.068,0,0,0-.144.4c0,.144.072.252.324.288,1.26-.072,3.276-1.368,3.276-2.736a2.536,2.536,0,0,0-2.376-2.16c-4.248,0-8.172,6.588-8.172,10.26,0,1.548.5,4.212,2.376,4.212,2.052,0,3.96-2.016,5.148-3.312.252,1.62,1.08,3.132,2.808,3.132,1.26,0,4.392-1.116,4.392-2.448,0-.18-.144-.288-.432-.288-.5.036-.864.252-1.3.252C55.264-2.448,55.012-5.256,55.012-6.408Zm7.6-5.364c.72.144,1.548.756,1.548,1.476,0,.648-.756.9-.756,1.512,0,.18.144.288.432.288,1.152,0,3.708-1.98,3.708-3.816A2.42,2.42,0,0,0,65.02-14.4c-4.212,0-7.2,5.58-7.2,9.5,0,2.052.864,5.256,3.492,5.256,2.952,0,6.84-3.852,6.84-5.328,0-.18-.108-.36-.432-.36-.936,0-2.844,1.548-3.132,2.2-.036.144-.468.9-.684.9-1.872,0-2.556-2.7-2.556-4.212A12.366,12.366,0,0,1,62.608-11.772Zm10.728,9.36c-1.764,0-1.8-3.96-1.8-5.724,3.024-4.464,5.4-9.36,5.4-14.364,0-.5-.036-3.024-1.116-3.024a3.338,3.338,0,0,0-2.736,1.764c-2.124,3.2-4.1,10.728-4.644,14.472a26.324,26.324,0,0,0-.288,3.78c0,1.548.18,5.616,2.556,5.616,1.728,0,4.032-1.764,5-2.7.18-.18.54-.576.54-.864,0-.252-.252-.324-.468-.324A4.846,4.846,0,0,0,73.336-2.412Zm0-15.912a43.522,43.522,0,0,1,1.548-4.1c.036.324.036.9.036,1.26,0,3.528-1.656,7.488-3.2,10.44A50.571,50.571,0,0,1,73.336-18.324ZM83.7-3.42A2.563,2.563,0,0,1,82.876-2.2,4.153,4.153,0,0,1,79.24-5c2.376-1.26,6.516-4.176,6.516-7.308,0-1.116-.576-2.34-1.908-2.34-4.32,0-8.316,5.58-8.316,9.9C75.532-2.3,77.26.36,80.032.36c2.448,0,4.824-1.98,6.3-4a3.623,3.623,0,0,0,.72-1.44.356.356,0,0,0-.36-.324A3.945,3.945,0,0,0,83.7-3.42ZM78.988-6.48a9.014,9.014,0,0,1,1.98-5.616.457.457,0,0,1,.216-.036c.864,0,1.224.972,1.224,1.8C82.408-8.5,80.608-7.2,78.988-6.48Z" transform="translate(241 62.74)"/><g transform="translate(101 -6.723)"><path class="a" d="M44.229,41.884a.627.627,0,0,0-1.094-.134A5.532,5.532,0,0,1,40.1,43.66a11.35,11.35,0,0,0-3.06,1.482,3.9,3.9,0,0,0-1.887,4.027l-.037.048a20.594,20.594,0,0,0-2.074-2.557,19.383,19.383,0,0,0-13.2-5.925c-.218-.008-.439-.011-.658-.011A19.146,19.146,0,0,0,4.682,47.5,19.058,19.058,0,0,0,.214,62.788c.07.454.157.914.26,1.365C1.832,70.131,5.3,74.678,9.991,76.629a9.008,9.008,0,0,0,3.465.725,7.712,7.712,0,0,0,6.807-4.168,9.016,9.016,0,0,0,1.083-3.1,7.479,7.479,0,0,0-.031-1.836,6.905,6.905,0,0,1-.027-1.786A2.393,2.393,0,0,1,23.8,64.317a3.876,3.876,0,0,1,1.177.189c-.462.847-.882,1.657-1.248,2.407a24.439,24.439,0,0,0-1.594,3.912c-.173.621-.632,2.27.488,3.048a1.675,1.675,0,0,0,1.276.247c.423-.079,1.711-.318,5.369-4.482.982-1.118,2.04-2.411,3.146-3.845a8.52,8.52,0,0,0,5.633-6.07,8.945,8.945,0,0,0,.181-2.175c1.063-1.643,2-3.175,2.933-4.823.018-.032.036-.066.053-.1a5.171,5.171,0,0,0,3.223-2.915A9.966,9.966,0,0,0,44.229,41.884ZM28.882,52.125a2.673,2.673,0,1,1,.345-2.017A2.662,2.662,0,0,1,28.882,52.125Zm3.47,4.844C33.7,54.977,35.132,53,36.49,51.237a7.329,7.329,0,0,0,.733.578,5.632,5.632,0,0,0,1.376.706c-1.146,1.96-2.379,3.9-3.871,6.1a100.34,100.34,0,0,1-7.178,9.449,27.68,27.68,0,0,1-3.1,3.118,27.974,27.974,0,0,1,1.763-4.049A100.65,100.65,0,0,1,32.352,56.969Zm-23.73-.017A2.673,2.673,0,1,1,10.887,55.7,2.665,2.665,0,0,1,8.622,56.951Zm-2.8,5.887a2.673,2.673,0,1,1-.345,2.017A2.661,2.661,0,0,1,5.819,62.838Zm8.562-15.878a2.674,2.674,0,1,1-.345,2.017A2.662,2.662,0,0,1,14.381,46.961Z" transform="translate(0)"/></g></g></svg>