<svg xmlns="http://www.w3.org/2000/svg" width="35" height="35" viewBox="0 0 35 35"><defs><style>.a{fill:none;}.b{fill:#4267b2;}.c{fill:#fff;}</style></defs><g transform="translate(0 0)"><rect class="a" width="35" height="35" transform="translate(0 0)"/><path class="b" d="M33.068,0H1.93A1.932,1.932,0,0,0,0,1.932V33.07A1.932,1.932,0,0,0,1.932,35H33.068A1.932,1.932,0,0,0,35,33.069h0V1.93A1.932,1.932,0,0,0,33.068,0Zm0,0" transform="translate(0 0)"/></g><path class="c" d="M218.731,107.132V93.554h5.345l.8-5.315h-6.146V84.855c0-1.535.5-2.581,3.068-2.581h3.258V77.533c-.567-.065-2.512-.209-4.774-.209-4.725,0-7.958,2.469-7.958,7V88.24H207v5.315h5.325v13.578Zm0,0" transform="translate(-194.759 -72.132)"/></svg>