<svg xmlns="http://www.w3.org/2000/svg" xmlns:xlink="http://www.w3.org/1999/xlink" width="35" height="35" viewBox="0 0 35 35"><defs><style>.a{fill:none;}.b{fill:url(#a);}.c{fill:url(#b);}.d{fill:url(#c);}</style><linearGradient id="a" x1="0.5" y1="0.008" x2="0.5" y2="0.998" gradientUnits="objectBoundingBox"><stop offset="0" stop-color="#e09b3d"/><stop offset="0.3" stop-color="#c74c4d"/><stop offset="0.6" stop-color="#c21975"/><stop offset="1" stop-color="#7024c4"/></linearGradient><linearGradient id="b" y1="-0.451" y2="1.462" xlink:href="#a"/><linearGradient id="c" y1="-1.396" y2="6.586" xlink:href="#a"/></defs><g transform="translate(-668.19 -3607)"><rect class="a" width="35" height="35" transform="translate(668.19 3607)"/><g transform="translate(668.19 3607)"><path class="b" d="M24.573,0H10.427A10.438,10.438,0,0,0,0,10.427V24.573A10.438,10.438,0,0,0,10.427,35H24.573A10.438,10.438,0,0,0,35,24.573V10.427A10.439,10.439,0,0,0,24.573,0Zm6.906,24.573a6.906,6.906,0,0,1-6.906,6.906H10.427a6.906,6.906,0,0,1-6.906-6.906V10.427a6.906,6.906,0,0,1,6.906-6.906H24.573a6.906,6.906,0,0,1,6.906,6.906V24.573Z"/><path class="c" d="M142.677,133a9.677,9.677,0,1,0,9.677,9.677A9.688,9.688,0,0,0,142.677,133Zm0,15.591a5.913,5.913,0,1,1,5.913-5.913A5.913,5.913,0,0,1,142.677,148.591Z" transform="translate(-125.177 -125.177)"/><circle class="d" cx="2.009" cy="2.009" r="2.009" transform="translate(24.656 6.413)"/></g></g></svg>