<svg xmlns="http://www.w3.org/2000/svg" width="35" height="35" viewBox="0 0 35 35"><defs><style>.a{fill:none;}.b{fill:#4caf50;}.c{fill:#fafafa;}</style></defs><g transform="translate(-668 -3681)"><rect class="a" width="35" height="35" transform="translate(668 3681)"/><g transform="translate(668 3681)"><path class="b" d="M17.5,0H17.5A17.489,17.489,0,0,0,3.332,27.757l-2.181,6.5,6.727-2.15A17.5,17.5,0,1,0,17.5,0Z"/><path class="c" d="M129.757,135.87c-.467,1.34-2.318,2.452-3.8,2.776-1.01.219-2.33.393-6.773-1.48-5.683-2.4-9.343-8.27-9.628-8.651s-2.3-3.111-2.3-5.934a6.326,6.326,0,0,1,1.977-4.788,2.781,2.781,0,0,1,1.977-.706c.239,0,.454.012.648.022.568.025.853.059,1.228.971.467,1.143,1.6,3.966,1.738,4.257a1.189,1.189,0,0,1,.082,1.065,3.4,3.4,0,0,1-.626.9c-.285.334-.556.59-.841.949a.935.935,0,0,0-.227,1.225,17.421,17.421,0,0,0,3.138,3.966,14.168,14.168,0,0,0,4.535,2.845,1.207,1.207,0,0,0,1.363-.219,23.765,23.765,0,0,0,1.511-2.036,1.069,1.069,0,0,1,1.388-.428c.522.184,3.285,1.574,3.853,1.862s.943.428,1.081.671A4.978,4.978,0,0,1,129.757,135.87Z" transform="translate(-101.05 -110.305)"/></g></g></svg>