<svg xmlns="http://www.w3.org/2000/svg" width="45.141" height="36.63" viewBox="0 0 45.141 36.63"><defs><style>.a{fill:#fff;}</style></defs><g transform="translate(0 -40.723)"><path class="a" d="M44.229,41.884a.627.627,0,0,0-1.094-.134A5.532,5.532,0,0,1,40.1,43.66a11.35,11.35,0,0,0-3.06,1.482,3.9,3.9,0,0,0-1.887,4.027l-.037.048a20.594,20.594,0,0,0-2.074-2.557,19.383,19.383,0,0,0-13.2-5.925c-.218-.008-.439-.011-.658-.011A19.146,19.146,0,0,0,4.682,47.5,19.058,19.058,0,0,0,.214,62.788c.07.454.157.914.26,1.365C1.832,70.131,5.3,74.678,9.991,76.629a9.008,9.008,0,0,0,3.465.725,7.712,7.712,0,0,0,6.807-4.168,9.016,9.016,0,0,0,1.083-3.1,7.479,7.479,0,0,0-.031-1.836,6.905,6.905,0,0,1-.027-1.786A2.393,2.393,0,0,1,23.8,64.317a3.876,3.876,0,0,1,1.177.189c-.462.847-.882,1.657-1.248,2.407a24.439,24.439,0,0,0-1.594,3.912c-.173.621-.632,2.27.488,3.048a1.675,1.675,0,0,0,1.276.247c.423-.079,1.711-.318,5.369-4.482.982-1.118,2.04-2.411,3.146-3.845a8.52,8.52,0,0,0,5.633-6.07,8.945,8.945,0,0,0,.181-2.175c1.063-1.643,2-3.175,2.933-4.823.018-.032.036-.066.053-.1a5.171,5.171,0,0,0,3.223-2.915A9.966,9.966,0,0,0,44.229,41.884ZM28.882,52.125a2.673,2.673,0,1,1,.345-2.017A2.662,2.662,0,0,1,28.882,52.125Zm3.47,4.844C33.7,54.977,35.132,53,36.49,51.237a7.329,7.329,0,0,0,.733.578,5.632,5.632,0,0,0,1.376.706c-1.146,1.96-2.379,3.9-3.871,6.1a100.34,100.34,0,0,1-7.178,9.449,27.68,27.68,0,0,1-3.1,3.118,27.974,27.974,0,0,1,1.763-4.049A100.65,100.65,0,0,1,32.352,56.969Zm-23.73-.017A2.673,2.673,0,1,1,10.887,55.7,2.665,2.665,0,0,1,8.622,56.951Zm-2.8,5.887a2.673,2.673,0,1,1-.345,2.017A2.661,2.661,0,0,1,5.819,62.838Zm8.562-15.878a2.674,2.674,0,1,1-.345,2.017A2.662,2.662,0,0,1,14.381,46.961Z" transform="translate(0)"/></g></svg>