<svg xmlns="http://www.w3.org/2000/svg" width="24.172" height="19.126" viewBox="0 0 24.172 19.126"><defs><style>.a{fill:#fff;}</style></defs><g transform="translate(0 72.569) rotate(-90)"><path class="a" d="M71.734,14.248l-8.2,8.206V.5a.5.5,0,0,0-1.007,0V22.453l-8.2-8.206a.5.5,0,0,0-.712.712l9.065,9.065a.5.5,0,0,0,.712,0h0l9.065-9.065a.5.5,0,0,0-.712-.712Z" transform="translate(-0.02)"/><path class="a" d="M63.005,308.873a.5.5,0,0,1-.357-.147l-9.065-9.065a.5.5,0,0,1,.712-.712l8.709,8.708,8.708-8.708a.5.5,0,0,1,.712.712l-9.065,9.065A.5.5,0,0,1,63.005,308.873Z" transform="translate(0 -284.7)"/><path class="a" d="M245.826,24.172a.5.5,0,0,1-.5-.5V.5a.5.5,0,1,1,1.007,0V23.669A.5.5,0,0,1,245.826,24.172Z" transform="translate(-182.82)"/></g></svg>