<svg xmlns="http://www.w3.org/2000/svg" width="178.997" height="39.861" viewBox="0 0 178.997 39.861">
  <path id="Path_5045" data-name="Path 5045" d="M11.911-6.622C8.127-7.138,3.784-8.3,3.053-11.051A7.163,7.163,0,0,1,2.8-12.943c0-3.827,3.01-7.4,7.4-10.406,2.451-1.677,7.009-3.741,10.664-3.741A5.948,5.948,0,0,1,24.6-25.972a3.9,3.9,0,0,1,1.075,2.967,14.592,14.592,0,0,1-1.72,5.977c-.43,1.118.688.731,1.419-.688a13.081,13.081,0,0,0,1.72-5.461A4.759,4.759,0,0,0,25.585-26.7a8.984,8.984,0,0,0-5.762-1.849,20.9,20.9,0,0,0-10.879,3.7c-4,2.709-7.611,6.794-7.611,11.352a8.422,8.422,0,0,0,.43,2.666C2.881-7.224,7.912-6.02,12.083-5.461c3.01.43,7.052.989,9.589,2.58C16.426-1.161,11.481,1.161,8.385,3.956a6.29,6.29,0,0,0-2.451,4c0,2.58,2.494,3.354,4.9,3.354a13.491,13.491,0,0,0,1.935-.172c6.192-1.032,12.9-4.773,12.9-9.89a5.256,5.256,0,0,0-1.29-3.569L28.165-3.44,33.454-4.9c.3-.086.344-.129.129-.344-.387-.3-1.806-.215-5.8.688-1.505.344-3.01.731-4.515,1.2C20.167-5.676,14.835-6.192,11.911-6.622ZM24.08,1.032c-.258,4.816-6.751,8-11.567,8.944a11.958,11.958,0,0,1-2.322.258c-1.806,0-3.01-.6-3.01-1.72,0-.9.731-2.107,2.451-3.612,2.58-2.279,6.794-4.558,13.33-6.751A4.218,4.218,0,0,1,24.08,1.032Zm8.3-2.322c.172.645,1.591,1.2,1.548.645a9.948,9.948,0,0,1,.3-1.849c1.032-2.967,4.6-5.59,6.751-5.547l-.043.344c-.043.344.559.6,1.161-.086.3-.344-.3-1.247-1.29-1.419C38.442-9.589,35.26-7.1,34.185-5.719L34.228-7.4a1.253,1.253,0,0,0-.645-.9c-.43-.215-.86-.215-.86.086C32.121-2.8,32.207-1.677,32.379-1.29Zm30.057.9A8.638,8.638,0,0,0,69.359-5.16c.6-1.2.774-2.193-.215-1.161-1.806,1.892-4.816,4.9-8.858,4.9a2.678,2.678,0,0,1-2.752-1.72c1.29-.946,2.752-1.763,3.053-3.225a1.835,1.835,0,0,0-2.021-2.279c-2.107.086-3.01,2.107-3.01,4a3.487,3.487,0,0,0,.258,1.419c-2.15,1.2-5.031,2.365-7.912,1.978a2.325,2.325,0,0,1-1.849-2.408,4.463,4.463,0,0,0,4-1.806,1.994,1.994,0,0,0-1.72-2.623,3.533,3.533,0,0,0-3.7,3.268c-.387,3.526,2.58,4.558,5.16,4.773a10.2,10.2,0,0,0,6.622-2.15C57.749-.645,60.458-.3,62.436-.387ZM59.254-7.181c.473.473-.387,1.591-2.15,2.838C56.846-6.106,58.351-8.084,59.254-7.181Zm-10.406.516c.3.559-.946,1.5-2.752,2.021C46.139-5.633,48.031-7.611,48.848-6.665ZM73.1,1.763c2.709,0,6.149-4.644,6.923-6.794.172-.516.086-1.591-.344-.989C79.034-5.2,73.831,1.806,71.6.43c-.946-.645-1.29-3.7-1.29-7.525a136.121,136.121,0,0,1,1.5-18.576c0-.215-.344-.559-.774-.774-.43-.172-.688-.129-.731.129-.559,1.806-1.763,11.051-1.763,18.189,0,3.569.3,6.622,1.118,7.912A4.275,4.275,0,0,0,73.1,1.763Zm6.493-3.44a2.807,2.807,0,0,0,1.548.43c2.279,0,5.117-2.193,6.321-3.268a4.047,4.047,0,0,0,3.053,2.709c1.806.43,4.773-.946,5.848-2.021,2.365-2.365,1.72-3.44.989-2.709-1.548,1.72-5.246,3.913-7.439,3.483a1.618,1.618,0,0,1-.946-1.806A10.508,10.508,0,0,1,89.655-7.1c.3-.516-1.161-1.462-1.419-.989l-.731.989h-.043a8.718,8.718,0,0,0-3.483-.731,7.466,7.466,0,0,0-4.128,1.161A3.161,3.161,0,0,0,78.3-4.042,2.912,2.912,0,0,0,79.593-1.677Zm.774-.946a.783.783,0,0,1-.774-1.032c.473-1.978,3.311-2.8,5.461-2.8a6.119,6.119,0,0,1,1.677.215A12.7,12.7,0,0,1,80.367-2.623ZM114.036-4.6c.731-.688,1.247-2.537.688-2.064C113-5.2,109.306-2.709,106.21-2.494a6.5,6.5,0,0,1-4.73-1.677c2.064-.6,5.117-3.053,4.472-4.644a1.768,1.768,0,0,0-1.763-1.118C101.7-9.718,99.8-6.923,98.427-4.6c.387-8.084.473-14.276.645-19.823a1.254,1.254,0,0,0-.9-.731c-.387-.172-.774,0-.774.258-.086,5.332-.473,13.5-.473,21.156,0,1.591.043,3.182.129,4.687.258.731,1.419,1.29,1.419.645a9.641,9.641,0,0,1,1.505-5.332,8.436,8.436,0,0,0,6.407,2.8C110.467-.946,113.219-3.827,114.036-4.6Zm-9.675-4.128c.3,1.118-2.623,3.569-3.655,3.655C102.383-7.74,103.8-8.944,104.361-8.729Zm9.761,7.912a8.133,8.133,0,0,0,2.752.387,12.082,12.082,0,0,0,3.01-.344c1.118-.3,1.935-1.5.989-2.322a30.361,30.361,0,0,0-3.784-2.236c-.86-.516-1.849-.946-1.591-1.548.473-1.118,4.386-1.849,5.977-2.408.344-.43-.516-1.247-1.2-1.161-2.193.3-6.88,1.677-6.536,3.956.172,1.29,1.376,1.72,2.494,2.365.86.473,2.494,1.29,3.569,1.849a21.038,21.038,0,0,1-4.214.473,6.656,6.656,0,0,1-1.419-.129C113.219-2.15,113.606-1.075,114.122-.817Zm11.653,0c.172.688,1.505,1.247,1.462.6.172-1.978,4.687-6.536,7.138-6.407,0,.3-.086.817-.086,1.419a3.258,3.258,0,0,0,1.2,2.752,5.073,5.073,0,0,0,2.881.86c2.752,0,5.977-1.634,6.923-3.053.645-.946.86-2.322.473-1.849-1.376,1.849-6.02,3.655-8.256,3.655a3.058,3.058,0,0,1-1.376-.3c-.3-1.247.043-2.451-.086-3.483a2.177,2.177,0,0,0-1.419-1.247c-2.451-.774-6.106,2.666-7.439,4.171V-7.525c.086-5.891.172-11.481.731-16.985,0-.645-1.677-1.161-1.677-.559-.3,5.5-.516,10.793-.516,16.727v6.106A8.8,8.8,0,0,0,125.775-.817Zm19.264-1.806c.129.516,1.247,1.376,1.591,1.075,1.677-1.462,2.881-3.741,5.074-5.16A18.649,18.649,0,0,0,152.779-3.1c.258.473,1.075.9,1.419.731a52.287,52.287,0,0,0,4.171-3.225,5.158,5.158,0,0,0,.645,1.29,5.893,5.893,0,0,0,1.462,1.462,5.429,5.429,0,0,0,2.881.86,8.26,8.26,0,0,0,5.891-3.268c.516-.946-.043-1.29-.172-1.075-.6,1.032-5.289,3.139-6.665,3.139A2.92,2.92,0,0,1,160.82-3.7c-.86-.731-1.075-2.279-1.505-3.139-.3-.473-1.118-.9-1.419-.688l-4.171,3.4a24.528,24.528,0,0,0-.9-3.526c-.344-.473-1.075-.9-1.419-.731-1.849.9-3.311,2.623-4.816,4.257-.043-1.419.129-2.193.086-3.311.129-.559-1.29-1.505-1.419-.774a23.388,23.388,0,0,0-.3,3.7C144.953-3.913,145-3.268,145.039-2.623Zm24.295.731a3.788,3.788,0,0,0,3.053,1.118c2.967-.129,6.88-3.526,7.7-5.031.516-.946.086-1.2-.086-1.032-1.29,1.29-5.848,4.73-8.514,4.73a2.048,2.048,0,0,1-1.247-.387c-.645-.559.215-5.418.559-5.762.043-.215-.215-.559-.688-.731-.516-.129-.946-.086-.989.129a6.869,6.869,0,0,0-.731,3.4A5.693,5.693,0,0,0,169.334-1.892Zm.9-9.976c.387.215.9.215,1.032.043.129-.215.473-1.161.559-1.376a1.641,1.641,0,0,0,.129-.731c.086-.215-.258-.559-.817-.688-.43-.172-.9-.086-.9.172l-.086.645c-.086.215-.387,1.075-.473,1.2C169.463-12.427,169.721-12.04,170.237-11.868Z" transform="translate(-1.333 28.552)"/>
</svg>
