<svg xmlns="http://www.w3.org/2000/svg" width="105.757" height="15.606" viewBox="0 0 105.757 15.606">
  <path id="Path_5056" data-name="Path 5056" d="M7.038-3.825c-.017.493-.323,2.363-.782,2.584a1.725,1.725,0,0,1-.425.034.92.92,0,0,1-.918-.969C4.913-3.315,6.12-3.757,7.038-3.825ZM6.9-4.76C5.457-4.25,3.23-2.907,3.23-1.224A1.286,1.286,0,0,0,4.641,0a3.439,3.439,0,0,0,1.8-.527c-.068.289-.17.323-.17.459.017.187.221.2.357.2,3.213-.068,5.746-1.785,5.746-5.151C12.376-7.667,9.758-9.3,7.5-9.3,3.383-9.3,0-5.015,0-1.037A4.334,4.334,0,0,0,4.522,3.349c.782,0,3.349-.272,3.349-1.275,0-.085-.119-.119-.187-.119-.663,0-1.309.221-1.955.221A3.826,3.826,0,0,1,1.564-1.836c0-3.094,2.159-6.307,4.777-6.307,2.975,0,4.539,1.8,4.539,4.046A3.255,3.255,0,0,1,7.667-.6a4.01,4.01,0,0,0,.408-1.054,10.553,10.553,0,0,0,.493-3.077c0-1-.408-2.142-1.717-2.142A2.424,2.424,0,0,0,4.488-5.185c.017.238.068.714.34.714.374,0,1.241-.578,1.241-.935,0-.119-.1-.221-.119-.323C6.647-5.661,6.8-5.253,6.9-4.76ZM17.663-6.545a1.027,1.027,0,0,0-.408.085c-.391.153-1.037.544-1.037.952,0,.2.935.306,1.1.306a15.871,15.871,0,0,0-.357,3.2c0,.85.051,2.227,1.071,2.227a4.4,4.4,0,0,0,2.346-1.258c.136-.136.493-.442.493-.646,0-.136-.119-.153-.221-.153a2.783,2.783,0,0,0-1.394.85c-.663,0-.68-1.6-.68-1.972a14.31,14.31,0,0,1,.17-2.261c.561-.085,2.5-.561,2.5-1.292,0-.119-.1-.153-.187-.153a3.966,3.966,0,0,0-.8.187,5.024,5.024,0,0,1-1.292.119c.119-.476.238-.935.391-1.394.051-.2.272-.714.289-.884,0-.1-.085-.136-.17-.136C18.326-8.568,17.935-7.5,17.663-6.545Zm9.129,5.321a2.3,2.3,0,0,1-.663-1.734,16.882,16.882,0,0,1,.969-3.91c-.017-.119-.17-.119-.255-.119-1.309,0-2.7,1.479-3.689,2.856a41.319,41.319,0,0,1,1.7-6.681A.611.611,0,0,0,24.888-11c0-.561-.935-1.156-1.411-1.156-.272,0-.442.6-.51.833A40.841,40.841,0,0,0,21.233-1.088a1.151,1.151,0,0,0,.068.442A2.186,2.186,0,0,0,22.559.17c.085,0,.153-.034.153-.119a16.2,16.2,0,0,1,.153-2.125,11.779,11.779,0,0,1,2.618-3.774A11.724,11.724,0,0,0,24.514-1.7c0,.765.2,1.7,1.071,1.7a3.917,3.917,0,0,0,2.159-1.122c.119-.119.374-.391.374-.544,0-.119-.153-.136-.221-.136A2.465,2.465,0,0,0,26.792-1.224Zm4.658-.391a1.21,1.21,0,0,1-.391.578,1.961,1.961,0,0,1-1.717-1.326c1.122-.6,3.077-1.972,3.077-3.451,0-.527-.272-1.105-.9-1.105-2.04,0-3.927,2.635-3.927,4.675A2.3,2.3,0,0,0,29.716.17a4.135,4.135,0,0,0,2.975-1.887,1.711,1.711,0,0,0,.34-.68.168.168,0,0,0-.17-.153A1.863,1.863,0,0,0,31.45-1.615ZM29.223-3.06a4.257,4.257,0,0,1,.935-2.652.216.216,0,0,1,.1-.017c.408,0,.578.459.578.85C30.838-4.012,29.988-3.4,29.223-3.06Zm3.893,6.511h7.973c.323,0,1.224-.544,1.224-.9,0-.119-.1-.136-.187-.136H34.153c-.374,0-1.224.578-1.224.9C32.929,3.434,33.031,3.451,33.116,3.451ZM47.277-3.026c0-.561.238-1.02.238-1.343,0-.119-.136-.153-.221-.153a2.52,2.52,0,0,0-1.428.969,12.518,12.518,0,0,1-1.53,2.329,2.181,2.181,0,0,1-.561-1.649,3.634,3.634,0,0,1,1.054-2.6c.238.1.612.459.612.731a.5.5,0,0,0-.068.187c0,.068.034.119.153.136.595-.034,1.547-.646,1.547-1.292a1.2,1.2,0,0,0-1.122-1.02c-2.006,0-3.859,3.111-3.859,4.845,0,.731.238,1.989,1.122,1.989.969,0,1.87-.952,2.431-1.564.119.765.51,1.479,1.326,1.479.595,0,2.074-.527,2.074-1.156,0-.085-.068-.136-.2-.136-.238.017-.408.119-.612.119C47.4-1.156,47.277-2.482,47.277-3.026Zm3.655-.884A8.844,8.844,0,0,1,52.6-5.627a8.912,8.912,0,0,1-.442,1.292.242.242,0,0,0-.034.1.129.129,0,0,0,.136.119,1.516,1.516,0,0,0,1.054-.7,7.347,7.347,0,0,0,.595-1.819c0-.1-.068-.119-.153-.119-.7,0-2.023,1.071-2.5,1.5a4.863,4.863,0,0,1,.578-1.292A.062.062,0,0,0,51.85-6.6c0-.187-.34-.272-.7-.272a1.75,1.75,0,0,0-.884.187c-.782.663-1.581,4.165-1.581,5.678,0,.8.85,1.156,1.513,1.156.187-.017.374-.068.374-.17A16.691,16.691,0,0,1,50.932-3.91Zm4.1-2.635a1.027,1.027,0,0,0-.408.085c-.391.153-1.037.544-1.037.952,0,.2.935.306,1.1.306a15.871,15.871,0,0,0-.357,3.2c0,.85.051,2.227,1.071,2.227a4.4,4.4,0,0,0,2.346-1.258c.136-.136.493-.442.493-.646,0-.136-.119-.153-.221-.153a2.783,2.783,0,0,0-1.394.85c-.663,0-.68-1.6-.68-1.972a14.31,14.31,0,0,1,.17-2.261c.561-.085,2.5-.561,2.5-1.292,0-.119-.1-.153-.187-.153a3.966,3.966,0,0,0-.8.187,5.024,5.024,0,0,1-1.292.119c.119-.476.238-.935.391-1.394.051-.2.272-.714.289-.884,0-.1-.085-.136-.17-.136C55.692-8.568,55.3-7.5,55.029-6.545Zm3.859,10h7.973c.323,0,1.224-.544,1.224-.9,0-.119-.1-.136-.187-.136H59.925c-.374,0-1.224.578-1.224.9C58.7,3.434,58.8,3.451,58.888,3.451Zm10.472-10c-.8.68-1.411,4.1-1.411,5.44,0,.85.918,1.19,1.53,1.19.221,0,.374-.068.374-.2A11.736,11.736,0,0,1,69.8-1.428a7.752,7.752,0,0,1,2.261-4.42,16.664,16.664,0,0,0-.833,4.675A1.38,1.38,0,0,0,72.76.085c.272,0,.357-.119.357-.238,0-.493-.051-.748-.051-1.207a5.535,5.535,0,0,1,.034-.7,8.346,8.346,0,0,1,1.955-3.009,11.13,11.13,0,0,0-.578,3.213c0,.731.136,1.853,1,1.853a3.905,3.905,0,0,0,2.567-1.751c0-.119-.085-.153-.17-.153a2.2,2.2,0,0,0-1.275.7c-.374-.136-.493-.765-.493-1.479a14.669,14.669,0,0,1,.714-3.808c0-.136-.068-.153-.153-.153-.969,0-2.924,1.955-3.4,2.567a6.115,6.115,0,0,1,.884-2.55.062.062,0,0,0,.017-.051c0-.255-.7-.272-.833-.272-1.292,0-2.363,1.207-3.06,2.091a4.659,4.659,0,0,1,.646-1.547.062.062,0,0,0,.017-.051c0-.255-.68-.272-.816-.272A1.245,1.245,0,0,0,69.36-6.545ZM80.223-1.139c-.629-.1-.646-.952-.646-1.445a10.819,10.819,0,0,1,.867-4.131.123.123,0,0,0-.136-.136,1.939,1.939,0,0,0-1.258.714,10.929,10.929,0,0,0-1.122,4.471C77.928-.9,78.115.085,79,.085A3.8,3.8,0,0,0,81.107-.986c.085-.085.442-.408.442-.6,0-.119-.17-.136-.238-.136A2.109,2.109,0,0,0,80.223-1.139Zm.442-6.613a4.661,4.661,0,0,0,.391-1.53c0-.306-.391-.425-.782-.425a.919.919,0,0,0-.7.221,4.567,4.567,0,0,0-.391,1.581c0,.374.289.51.612.51A1.147,1.147,0,0,0,80.665-7.752ZM83.419-3.91a8.844,8.844,0,0,1,1.666-1.717,8.911,8.911,0,0,1-.442,1.292.242.242,0,0,0-.034.1.129.129,0,0,0,.136.119,1.516,1.516,0,0,0,1.054-.7,7.347,7.347,0,0,0,.6-1.819c0-.1-.068-.119-.153-.119-.7,0-2.023,1.071-2.5,1.5a4.863,4.863,0,0,1,.578-1.292.062.062,0,0,0,.017-.051c0-.187-.34-.272-.7-.272a1.75,1.75,0,0,0-.884.187c-.782.663-1.581,4.165-1.581,5.678,0,.8.85,1.156,1.513,1.156.187-.017.374-.068.374-.17A16.691,16.691,0,0,1,83.419-3.91Zm7.208.884c0-.561.238-1.02.238-1.343,0-.119-.136-.153-.221-.153a2.52,2.52,0,0,0-1.428.969,12.517,12.517,0,0,1-1.53,2.329,2.181,2.181,0,0,1-.561-1.649,3.634,3.634,0,0,1,1.054-2.6c.238.1.612.459.612.731a.5.5,0,0,0-.068.187c0,.068.034.119.153.136.6-.034,1.547-.646,1.547-1.292A1.2,1.2,0,0,0,89.3-6.732c-2.006,0-3.859,3.111-3.859,4.845,0,.731.238,1.989,1.122,1.989.969,0,1.87-.952,2.431-1.564C89.114-.7,89.5.017,90.321.017c.6,0,2.074-.527,2.074-1.156,0-.085-.068-.136-.2-.136-.238.017-.408.119-.612.119C90.746-1.156,90.627-2.482,90.627-3.026Zm3.587-2.533c.34.068.731.357.731.7,0,.306-.357.425-.357.714,0,.085.068.136.2.136a2.294,2.294,0,0,0,1.751-1.8,1.143,1.143,0,0,0-1.19-.986c-1.989,0-3.4,2.635-3.4,4.488,0,.969.408,2.482,1.649,2.482,1.394,0,3.23-1.819,3.23-2.516,0-.085-.051-.17-.2-.17a2.629,2.629,0,0,0-1.479,1.037c-.017.068-.221.425-.323.425-.884,0-1.207-1.275-1.207-1.989A5.839,5.839,0,0,1,94.214-5.559Zm5.066,4.42c-.833,0-.85-1.87-.85-2.7a12.53,12.53,0,0,0,2.55-6.783c0-.238-.017-1.428-.527-1.428a1.576,1.576,0,0,0-1.292.833,21.879,21.879,0,0,0-2.193,6.834A12.43,12.43,0,0,0,96.832-2.6c0,.731.085,2.652,1.207,2.652A4.4,4.4,0,0,0,100.4-1.224c.085-.085.255-.272.255-.408,0-.119-.119-.153-.221-.153A2.288,2.288,0,0,0,99.28-1.139Zm0-7.514a20.553,20.553,0,0,1,.731-1.938c.017.153.017.425.017.6a11.53,11.53,0,0,1-1.513,4.93A23.88,23.88,0,0,1,99.28-8.653Zm4.9,7.038a1.21,1.21,0,0,1-.391.578,1.961,1.961,0,0,1-1.717-1.326c1.122-.6,3.077-1.972,3.077-3.451,0-.527-.272-1.105-.9-1.105-2.04,0-3.927,2.635-3.927,4.675A2.3,2.3,0,0,0,102.442.17a4.135,4.135,0,0,0,2.975-1.887,1.711,1.711,0,0,0,.34-.68.168.168,0,0,0-.17-.153A1.863,1.863,0,0,0,104.176-1.615ZM101.949-3.06a4.257,4.257,0,0,1,.935-2.652.216.216,0,0,1,.1-.017c.408,0,.578.459.578.85C103.564-4.012,102.714-3.4,101.949-3.06Z" transform="translate(0 12.155)" fill="#fff" opacity="0.53"/>
</svg>
