<svg xmlns="http://www.w3.org/2000/svg" width="35" height="35" viewBox="0 0 35 35"><defs><style>.a{fill:none;}.b{fill:#f2f2f2;}.c{fill:#f14336;}.d{fill:#d32e2a;}</style></defs><g transform="translate(-793 -3680.831)"><rect class="a" width="35" height="35" transform="translate(793 3680.831)"/><g transform="translate(793 3624.017)"><g transform="translate(2.6 60.983)"><path class="b" d="M63.673,122.808l-2.193,21.846H35.146l-1.766-21.423,14.934,8.3Z" transform="translate(-33.379 -117.992)"/><path class="b" d="M67.176,60.983,52.645,76.928,38.114,60.983H67.176Z" transform="translate(-37.745 -60.983)"/></g><path class="c" d="M4.652,114.88v19.778H1.88A1.764,1.764,0,0,1,0,133.042V111.967l3.038.071Z" transform="translate(0 -47.012)"/><path class="d" d="M456.94,109.169v21.106a1.765,1.765,0,0,1-1.881,1.618h-2.77V112.086l1.534-3.118Z" transform="translate(-421.94 -44.247)"/><path class="c" d="M35,62.863v2.091l-4.082,3.391L17.5,79.491,4.082,68.346,0,64.955V62.863a1.777,1.777,0,0,1,1.65-1.88h.955L17.5,73.355,32.395,60.983h.954A1.777,1.777,0,0,1,35,62.863Z"/><path class="d" d="M4.652,115.358,0,114.637v-2.67Z" transform="translate(0 -47.012)"/></g></g></svg>